{"title":"Ballers S01E07 1080p HDTV DD5 1 x264-DTG","uid":12198661,"size":2037720067,"categoryP":"video","categoryS":"hd___tv_shows","magnet":"?xt=urn:btih:09585a33a2e3c5ec0379522e4f485d2187be2a62&amp;dn=Ballers+S01E07+1080p+HDTV+DD5+1+x264-DTG&amp;tr=udp%3A%2F%2Ftracker.openbittorrent.com%3A80&amp;tr=udp%3A%2F%2Fopen.demonii.com%3A1337&amp;tr=udp%3A%2F%2Ftracker.coppersurfer.tk%3A6969&amp;tr=udp%3A%2F%2Fexodus.desync.com%3A6969","seeders":10,"leechers":1,"uploader":"D3tergent","files":1,"time":1438789697,"description":"Ballers - S01E07 - Ends\n\n\nVideo : H.264, 1920x1078\nAudio : AC3, 5.1, 384 kb/s\nSubtitles : English\n\nSource : Ballers S01E07 1080i HDTV MPEG2 DD5.1-CtrlHD\n\nFormat : Matroska\nFormat version : Version 4 / Version 2\nFile size : 1.90 GiB\nDuration : 25mn 32s\nOverall bit rate : 10.6 Mbps\nEncoded date : UTC 2015-08-05 13:47:10\nWriting application : mkvmerge v8.2.0 ('World of Adventure') 64bit\nWriting library : Lavf56.36.100\nDURATION : 00:22:53.214000000\nNUMBER_OF_FRAMES : 496\nNUMBER_OF_BYTES : 17735\n_STATISTICS_WRITING_APP : mkvmerge v8.2.0 ('World of Adventure') 64bit\n_STATISTICS_WRITING_DATE_UTC : 2015-08-05 13:47:10\n_STATISTICS_TAGS : BPS DURATION NUMBER_OF_FRAMES NUMBER_OF_BYTES\n\nVideo\nID : 1\nFormat : AVC\nFormat/Info : Advanced Video Codec\nFormat profile : &lt;a class=&quot;__cf_email__&quot; href=&quot;/cdn-cgi/l/email-protection&quot; data-cfemail=&quot;b9f1d0ded1f9f58d9789&quot;&gt;[email&amp;#160;protected]&lt;/a&gt;&lt;script data-cfhash='f9e31' type=&quot;text/javascript&quot;&gt;\n/* &lt;![CDATA[ */!function(){try{var t=&quot;currentScript&quot;in document?document.currentScript:function(){for(var t=document.getElementsByTagName(&quot;script&quot;),e=t.length;e--;)if(t[e].getAttribute(&quot;data-cfhash&quot;))return t[e]}();if(t&amp;&amp;t.previousSibling){var e,r,n,i,c=t.previousSibling,a=c.getAttribute(&quot;data-cfemail&quot;);if(a){for(e=&quot;&quot;,r=parseInt(a.substr(0,2),16),n=2;a.length-n;n+=2)i=parseInt(a.substr(n,2),16)^r,e+=String.fromCharCode(i);e=document.createTextNode(e),c.parentNode.replaceChild(e,c)}t.parentNode.removeChild(t);}}catch(u){}}()/* ]]&gt; */&lt;/script&gt;\nFormat settings, CABAC : Yes\nFormat settings, ReFrames : 4 frames\nCodec ID : V_MPEG4/ISO/AVC\nDuration : 25mn 32s\nBit rate : 10.0 Mbps\nWidth : 1 920 pixels\nHeight : 1 078 pixels\nDisplay aspect ratio : 16:9\nFrame rate mode : Constant\nFrame rate : 23.976 fps\nColor space : YUV\nChroma subsampling : 4:2:0\nBit depth : 8 bits\nScan type : Progressive\nBits/(Pixel*Frame) : 0.202\nStream size : 1.79 GiB (94%)\nWriting library : x264 core 148 r2579 73ae2d1\nEncoding settings : cabac=1 / ref=4 / deblock=1:-3:-3 / analyse=0x3:0x133 / me=umh / subme=11 / psy=1 / psy_rd=1.00:0.15 / mixed_ref=1 / me_range=64 / chroma_me=1 / trellis=2 / 8x8dct=1 / cqm=0 / deadzone=21,11 / fast_pskip=0 / chroma_qp_offset=-3 / threads=20 / lookahead_threads=3 / sliced_threads=0 / nr=0 / decimate=1 / interlaced=0 / bluray_compat=0 / constrained_intra=0 / bframes=8 / b_pyramid=2 / b_adapt=2 / b_bias=0 / direct=3 / weightb=1 / open_gop=0 / weightp=2 / keyint=250 / keyint_min=23 / scenecut=40 / intra_refresh=0 / rc_lookahead=60 / rc=crf / mbtree=1 / crf=19.0 / qcomp=0.60 / qpmin=0 / qpmax=69 / qpstep=4 / ip_ratio=1.40 / aq=3:0.85\nDefault : Yes\nForced : No\nMatrix coefficients : BT.709\nDURATION : 00:25:32.656000000\nNUMBER_OF_FRAMES : 36746\nNUMBER_OF_BYTES : 1963755737\n_STATISTICS_WRITING_APP : mkvmerge v8.2.0 ('World of Adventure') 64bit\n_STATISTICS_WRITING_DATE_UTC : 2015-08-05 13:47:10\n_STATISTICS_TAGS : BPS DURATION NUMBER_OF_FRAMES NUMBER_OF_BYTES\n\nAudio\nID : 2\nFormat : AC-3\nFormat/Info : Audio Coding 3\nMode extension : CM (complete main)\nFormat settings, Endianness : Big\nCodec ID : A_AC3\nDuration : 25mn 32s\nBit rate mode : Constant\nBit rate : 384 Kbps\nChannel(s) : 6 channels\nChannel positions : Front: L C R, Side: L R, LFE\nSampling rate : 48.0 KHz\nBit depth : 16 bits\nCompression mode : Lossy\nStream size : 70.2 MiB (4%)\nDefault : Yes\nForced : No\nDURATION : 00:25:32.512000000\nNUMBER_OF_FRAMES : 47891\nNUMBER_OF_BYTES : 73560576\n_STATISTICS_WRITING_APP : mkvmerge v8.2.0 ('World of Adventure') 64bit\n_STATISTICS_WRITING_DATE_UTC : 2015-08-05 13:47:10\n_STATISTICS_TAGS : BPS DURATION NUMBER_OF_FRAMES NUMBER_OF_BYTES\n\nText\nID : 3\nFormat : UTF-8\nCodec ID : S_TEXT/UTF8\nCodec ID/Info : UTF-8 Plain Text\nDefault : No\nForced : No","torrent":{"xt":"urn:btih:09585a33a2e3c5ec0379522e4f485d2187be2a62","amp;dn":"Ballers+S01E07+1080p+HDTV+DD5+1+x264-DTG","amp;tr":["udp%3A%2F%2Ftracker.openbittorrent.com%3A80","udp%3A%2F%2Fopen.demonii.com%3A1337","udp%3A%2F%2Ftracker.coppersurfer.tk%3A6969","udp%3A%2F%2Fexodus.desync.com%3A6969"],"infoHash":"09585a33a2e3c5ec0379522e4f485d2187be2a62","infoHashBuffer":{"type":"Buffer","data":[9,88,90,51,162,227,197,236,3,121,82,46,79,72,93,33,135,190,42,98]},"announce":[],"urlList":[]}}